<svg xmlns="http://www.w3.org/2000/svg" xmlns:xlink="http://www.w3.org/1999/xlink" width="14" height="10.5" viewBox="0 0 14 10.5">
  <defs>
    <clipPath id="clip-path">
      <rect id="사각형_797" data-name="사각형 797" width="14" height="10.5" fill="none"/>
    </clipPath>
  </defs>
  <g id="조회수_icon" data-name="조회수 icon" clip-path="url(#clip-path)">
    <path id="패스_1235" data-name="패스 1235" d="M13.9,4.772C13.383,3.652,11.375,0,7,0S.617,3.652.1,4.772a1.152,1.152,0,0,0,0,.957C.617,6.848,2.625,10.5,7,10.5s6.383-3.652,6.9-4.772a1.148,1.148,0,0,0,0-.956M7,9.334c-3.679,0-5.4-3.13-5.834-4.077C1.6,4.3,3.321,1.167,7,1.167s5.387,3.117,5.834,4.083C12.387,6.217,10.671,9.334,7,9.334" transform="translate(0)" fill="#94a3b8"/>
    <path id="패스_1236" data-name="패스 1236" d="M7.583,2.667a2.919,2.919,0,1,0,2.062.855,2.918,2.918,0,0,0-2.062-.855m0,4.666a1.751,1.751,0,1,1,1.237-.513,1.747,1.747,0,0,1-1.237.513" transform="translate(-0.583 -0.333)" fill="#94a3b8"/>
  </g>
</svg>
